<svg xmlns="http://www.w3.org/2000/svg" viewBox="0 0 512 512" width="512" height="512">
  <defs>
    <linearGradient id="bg" x1="0%" y1="0%" x2="100%" y2="100%">
      <stop offset="0%" style="stop-color:#2563EB"/>
      <stop offset="100%" style="stop-color:#1D4ED8"/>
    </linearGradient>
  </defs>
  <!-- Rounded square background -->
  <rect width="512" height="512" rx="96" ry="96" fill="url(#bg)"/>
  <!-- House roof -->
  <path d="M256 100 L420 230 L400 230 L400 400 L310 400 L310 300 L202 300 L202 400 L112 400 L112 230 L92 230 Z"
        fill="white" stroke="none"/>
  <!-- Comparison arrows (side by side) -->
  <rect x="175" y="320" width="4" height="60" rx="2" fill="#2563EB"/>
  <rect x="333" y="320" width="4" height="60" rx="2" fill="#2563EB"/>
  <!-- Left arrow -->
  <path d="M160 350 L177 335 L177 365 Z" fill="#2563EB"/>
  <!-- Right arrow -->
  <path d="M352 350 L335 335 L335 365 Z" fill="#2563EB"/>
  <!-- Window left -->
  <rect x="155" y="240" width="55" height="45" rx="6" fill="#2563EB" opacity="0.3"/>
  <!-- Window right -->
  <rect x="302" y="240" width="55" height="45" rx="6" fill="#2563EB" opacity="0.3"/>
</svg>
